<?xml version="1.0" encoding="UTF-8" standalone="no"?>
<svg width="705.556mm" height="705.556mm"
 viewBox="0 0 2000 2000"
 xmlns="http://www.w3.org/2000/svg" xmlns:xlink="http://www.w3.org/1999/xlink"  version="1.2" baseProfile="tiny">
<title>Lib Editor</title>
<desc>File created by Snail lib Editor.</desc>
<defs>
</defs>
<g fill="none" stroke="black" stroke-width="1" fill-rule="evenodd" stroke-linecap="square" stroke-linejoin="bevel" >

<g fill="none" stroke="#000000" stroke-opacity="1" stroke-width="1" stroke-linecap="square" stroke-linejoin="bevel" transform="matrix(1,0,0,1,0,0)"
font-family="MS Shell Dlg 2" font-size="8.25" font-weight="400" font-style="normal" 
>
</g>

<g fill="none" stroke="#000000" stroke-opacity="1" stroke-width="1" stroke-linecap="square" stroke-linejoin="bevel" transform="matrix(1,0,0,1,0,0)"
font-family="MS Shell Dlg 2" font-size="8.25" font-weight="400" font-style="normal" 
>
</g>

<g fill="#c8dcff" fill-opacity="1" stroke="none" transform="matrix(1,0,0,1,0,0)"
font-family="MS Shell Dlg 2" font-size="8.25" font-weight="400" font-style="normal" 
>
<rect x="0" y="0" width="2000" height="2000"/>
</g>

<g fill="none" stroke="#ff0000" stroke-opacity="1" stroke-dasharray="4,2" stroke-dashoffset="0" stroke-width="1" stroke-linecap="square" stroke-linejoin="bevel" transform="matrix(1,0,0,1,0,0)"
font-family="MS Shell Dlg 2" font-size="8.25" font-weight="400" font-style="normal" 
>
<polyline fill="none" vector-effect="none" points="0,0 0,2000 " />
<polyline fill="none" vector-effect="none" points="10,0 10,2000 " />
<polyline fill="none" vector-effect="none" points="20,0 20,2000 " />
<polyline fill="none" vector-effect="none" points="30,0 30,2000 " />
<polyline fill="none" vector-effect="none" points="40,0 40,2000 " />
<polyline fill="none" vector-effect="none" points="50,0 50,2000 " />
<polyline fill="none" vector-effect="none" points="60,0 60,2000 " />
<polyline fill="none" vector-effect="none" points="70,0 70,2000 " />
<polyline fill="none" vector-effect="none" points="80,0 80,2000 " />
<polyline fill="none" vector-effect="none" points="90,0 90,2000 " />
<polyline fill="none" vector-effect="none" points="100,0 100,2000 " />
<polyline fill="none" vector-effect="none" points="110,0 110,2000 " />
<polyline fill="none" vector-effect="none" points="120,0 120,2000 " />
<polyline fill="none" vector-effect="none" points="130,0 130,2000 " />
<polyline fill="none" vector-effect="none" points="140,0 140,2000 " />
<polyline fill="none" vector-effect="none" points="150,0 150,2000 " />
<polyline fill="none" vector-effect="none" points="160,0 160,2000 " />
<polyline fill="none" vector-effect="none" points="170,0 170,2000 " />
<polyline fill="none" vector-effect="none" points="180,0 180,2000 " />
<polyline fill="none" vector-effect="none" points="190,0 190,2000 " />
<polyline fill="none" vector-effect="none" points="200,0 200,2000 " />
<polyline fill="none" vector-effect="none" points="210,0 210,2000 " />
<polyline fill="none" vector-effect="none" points="220,0 220,2000 " />
<polyline fill="none" vector-effect="none" points="230,0 230,2000 " />
<polyline fill="none" vector-effect="none" points="240,0 240,2000 " />
<polyline fill="none" vector-effect="none" points="250,0 250,2000 " />
<polyline fill="none" vector-effect="none" points="260,0 260,2000 " />
<polyline fill="none" vector-effect="none" points="270,0 270,2000 " />
<polyline fill="none" vector-effect="none" points="280,0 280,2000 " />
<polyline fill="none" vector-effect="none" points="290,0 290,2000 " />
<polyline fill="none" vector-effect="none" points="300,0 300,2000 " />
<polyline fill="none" vector-effect="none" points="310,0 310,2000 " />
<polyline fill="none" vector-effect="none" points="320,0 320,2000 " />
<polyline fill="none" vector-effect="none" points="330,0 330,2000 " />
<polyline fill="none" vector-effect="none" points="340,0 340,2000 " />
<polyline fill="none" vector-effect="none" points="350,0 350,2000 " />
<polyline fill="none" vector-effect="none" points="360,0 360,2000 " />
<polyline fill="none" vector-effect="none" points="370,0 370,2000 " />
<polyline fill="none" vector-effect="none" points="380,0 380,2000 " />
<polyline fill="none" vector-effect="none" points="390,0 390,2000 " />
<polyline fill="none" vector-effect="none" points="400,0 400,2000 " />
<polyline fill="none" vector-effect="none" points="410,0 410,2000 " />
<polyline fill="none" vector-effect="none" points="420,0 420,2000 " />
<polyline fill="none" vector-effect="none" points="430,0 430,2000 " />
<polyline fill="none" vector-effect="none" points="440,0 440,2000 " />
<polyline fill="none" vector-effect="none" points="450,0 450,2000 " />
<polyline fill="none" vector-effect="none" points="460,0 460,2000 " />
<polyline fill="none" vector-effect="none" points="470,0 470,2000 " />
<polyline fill="none" vector-effect="none" points="480,0 480,2000 " />
<polyline fill="none" vector-effect="none" points="490,0 490,2000 " />
<polyline fill="none" vector-effect="none" points="500,0 500,2000 " />
<polyline fill="none" vector-effect="none" points="510,0 510,2000 " />
<polyline fill="none" vector-effect="none" points="520,0 520,2000 " />
<polyline fill="none" vector-effect="none" points="530,0 530,2000 " />
<polyline fill="none" vector-effect="none" points="540,0 540,2000 " />
<polyline fill="none" vector-effect="none" points="550,0 550,2000 " />
<polyline fill="none" vector-effect="none" points="560,0 560,2000 " />
<polyline fill="none" vector-effect="none" points="570,0 570,2000 " />
<polyline fill="none" vector-effect="none" points="580,0 580,2000 " />
<polyline fill="none" vector-effect="none" points="590,0 590,2000 " />
<polyline fill="none" vector-effect="none" points="600,0 600,2000 " />
<polyline fill="none" vector-effect="none" points="610,0 610,2000 " />
<polyline fill="none" vector-effect="none" points="620,0 620,2000 " />
<polyline fill="none" vector-effect="none" points="630,0 630,2000 " />
<polyline fill="none" vector-effect="none" points="640,0 640,2000 " />
<polyline fill="none" vector-effect="none" points="650,0 650,2000 " />
<polyline fill="none" vector-effect="none" points="660,0 660,2000 " />
<polyline fill="none" vector-effect="none" points="670,0 670,2000 " />
<polyline fill="none" vector-effect="none" points="680,0 680,2000 " />
<polyline fill="none" vector-effect="none" points="690,0 690,2000 " />
<polyline fill="none" vector-effect="none" points="700,0 700,2000 " />
<polyline fill="none" vector-effect="none" points="710,0 710,2000 " />
<polyline fill="none" vector-effect="none" points="720,0 720,2000 " />
<polyline fill="none" vector-effect="none" points="730,0 730,2000 " />
<polyline fill="none" vector-effect="none" points="740,0 740,2000 " />
<polyline fill="none" vector-effect="none" points="750,0 750,2000 " />
<polyline fill="none" vector-effect="none" points="760,0 760,2000 " />
<polyline fill="none" vector-effect="none" points="770,0 770,2000 " />
<polyline fill="none" vector-effect="none" points="780,0 780,2000 " />
<polyline fill="none" vector-effect="none" points="790,0 790,2000 " />
<polyline fill="none" vector-effect="none" points="800,0 800,2000 " />
<polyline fill="none" vector-effect="none" points="810,0 810,2000 " />
<polyline fill="none" vector-effect="none" points="820,0 820,2000 " />
<polyline fill="none" vector-effect="none" points="830,0 830,2000 " />
<polyline fill="none" vector-effect="none" points="840,0 840,2000 " />
<polyline fill="none" vector-effect="none" points="850,0 850,2000 " />
<polyline fill="none" vector-effect="none" points="860,0 860,2000 " />
<polyline fill="none" vector-effect="none" points="870,0 870,2000 " />
<polyline fill="none" vector-effect="none" points="880,0 880,2000 " />
<polyline fill="none" vector-effect="none" points="890,0 890,2000 " />
<polyline fill="none" vector-effect="none" points="900,0 900,2000 " />
<polyline fill="none" vector-effect="none" points="910,0 910,2000 " />
<polyline fill="none" vector-effect="none" points="920,0 920,2000 " />
<polyline fill="none" vector-effect="none" points="930,0 930,2000 " />
<polyline fill="none" vector-effect="none" points="940,0 940,2000 " />
<polyline fill="none" vector-effect="none" points="950,0 950,2000 " />
<polyline fill="none" vector-effect="none" points="960,0 960,2000 " />
<polyline fill="none" vector-effect="none" points="970,0 970,2000 " />
<polyline fill="none" vector-effect="none" points="980,0 980,2000 " />
<polyline fill="none" vector-effect="none" points="990,0 990,2000 " />
<polyline fill="none" vector-effect="none" points="1000,0 1000,2000 " />
<polyline fill="none" vector-effect="none" points="1010,0 1010,2000 " />
<polyline fill="none" vector-effect="none" points="1020,0 1020,2000 " />
<polyline fill="none" vector-effect="none" points="1030,0 1030,2000 " />
<polyline fill="none" vector-effect="none" points="1040,0 1040,2000 " />
<polyline fill="none" vector-effect="none" points="1050,0 1050,2000 " />
<polyline fill="none" vector-effect="none" points="1060,0 1060,2000 " />
<polyline fill="none" vector-effect="none" points="1070,0 1070,2000 " />
<polyline fill="none" vector-effect="none" points="1080,0 1080,2000 " />
<polyline fill="none" vector-effect="none" points="1090,0 1090,2000 " />
<polyline fill="none" vector-effect="none" points="1100,0 1100,2000 " />
<polyline fill="none" vector-effect="none" points="1110,0 1110,2000 " />
<polyline fill="none" vector-effect="none" points="1120,0 1120,2000 " />
<polyline fill="none" vector-effect="none" points="1130,0 1130,2000 " />
<polyline fill="none" vector-effect="none" points="1140,0 1140,2000 " />
<polyline fill="none" vector-effect="none" points="1150,0 1150,2000 " />
<polyline fill="none" vector-effect="none" points="1160,0 1160,2000 " />
<polyline fill="none" vector-effect="none" points="1170,0 1170,2000 " />
<polyline fill="none" vector-effect="none" points="1180,0 1180,2000 " />
<polyline fill="none" vector-effect="none" points="1190,0 1190,2000 " />
<polyline fill="none" vector-effect="none" points="1200,0 1200,2000 " />
<polyline fill="none" vector-effect="none" points="1210,0 1210,2000 " />
<polyline fill="none" vector-effect="none" points="1220,0 1220,2000 " />
<polyline fill="none" vector-effect="none" points="1230,0 1230,2000 " />
<polyline fill="none" vector-effect="none" points="1240,0 1240,2000 " />
<polyline fill="none" vector-effect="none" points="1250,0 1250,2000 " />
<polyline fill="none" vector-effect="none" points="1260,0 1260,2000 " />
<polyline fill="none" vector-effect="none" points="1270,0 1270,2000 " />
<polyline fill="none" vector-effect="none" points="1280,0 1280,2000 " />
<polyline fill="none" vector-effect="none" points="1290,0 1290,2000 " />
<polyline fill="none" vector-effect="none" points="1300,0 1300,2000 " />
<polyline fill="none" vector-effect="none" points="1310,0 1310,2000 " />
<polyline fill="none" vector-effect="none" points="1320,0 1320,2000 " />
<polyline fill="none" vector-effect="none" points="1330,0 1330,2000 " />
<polyline fill="none" vector-effect="none" points="1340,0 1340,2000 " />
<polyline fill="none" vector-effect="none" points="1350,0 1350,2000 " />
<polyline fill="none" vector-effect="none" points="1360,0 1360,2000 " />
<polyline fill="none" vector-effect="none" points="1370,0 1370,2000 " />
<polyline fill="none" vector-effect="none" points="1380,0 1380,2000 " />
<polyline fill="none" vector-effect="none" points="1390,0 1390,2000 " />
<polyline fill="none" vector-effect="none" points="1400,0 1400,2000 " />
<polyline fill="none" vector-effect="none" points="1410,0 1410,2000 " />
<polyline fill="none" vector-effect="none" points="1420,0 1420,2000 " />
<polyline fill="none" vector-effect="none" points="1430,0 1430,2000 " />
<polyline fill="none" vector-effect="none" points="1440,0 1440,2000 " />
<polyline fill="none" vector-effect="none" points="1450,0 1450,2000 " />
<polyline fill="none" vector-effect="none" points="1460,0 1460,2000 " />
<polyline fill="none" vector-effect="none" points="1470,0 1470,2000 " />
<polyline fill="none" vector-effect="none" points="1480,0 1480,2000 " />
<polyline fill="none" vector-effect="none" points="1490,0 1490,2000 " />
<polyline fill="none" vector-effect="none" points="1500,0 1500,2000 " />
<polyline fill="none" vector-effect="none" points="1510,0 1510,2000 " />
<polyline fill="none" vector-effect="none" points="1520,0 1520,2000 " />
<polyline fill="none" vector-effect="none" points="1530,0 1530,2000 " />
<polyline fill="none" vector-effect="none" points="1540,0 1540,2000 " />
<polyline fill="none" vector-effect="none" points="1550,0 1550,2000 " />
<polyline fill="none" vector-effect="none" points="1560,0 1560,2000 " />
<polyline fill="none" vector-effect="none" points="1570,0 1570,2000 " />
<polyline fill="none" vector-effect="none" points="1580,0 1580,2000 " />
<polyline fill="none" vector-effect="none" points="1590,0 1590,2000 " />
<polyline fill="none" vector-effect="none" points="1600,0 1600,2000 " />
<polyline fill="none" vector-effect="none" points="1610,0 1610,2000 " />
<polyline fill="none" vector-effect="none" points="1620,0 1620,2000 " />
<polyline fill="none" vector-effect="none" points="1630,0 1630,2000 " />
<polyline fill="none" vector-effect="none" points="1640,0 1640,2000 " />
<polyline fill="none" vector-effect="none" points="1650,0 1650,2000 " />
<polyline fill="none" vector-effect="none" points="1660,0 1660,2000 " />
<polyline fill="none" vector-effect="none" points="1670,0 1670,2000 " />
<polyline fill="none" vector-effect="none" points="1680,0 1680,2000 " />
<polyline fill="none" vector-effect="none" points="1690,0 1690,2000 " />
<polyline fill="none" vector-effect="none" points="1700,0 1700,2000 " />
<polyline fill="none" vector-effect="none" points="1710,0 1710,2000 " />
<polyline fill="none" vector-effect="none" points="1720,0 1720,2000 " />
<polyline fill="none" vector-effect="none" points="1730,0 1730,2000 " />
<polyline fill="none" vector-effect="none" points="1740,0 1740,2000 " />
<polyline fill="none" vector-effect="none" points="1750,0 1750,2000 " />
<polyline fill="none" vector-effect="none" points="1760,0 1760,2000 " />
<polyline fill="none" vector-effect="none" points="1770,0 1770,2000 " />
<polyline fill="none" vector-effect="none" points="1780,0 1780,2000 " />
<polyline fill="none" vector-effect="none" points="1790,0 1790,2000 " />
<polyline fill="none" vector-effect="none" points="1800,0 1800,2000 " />
<polyline fill="none" vector-effect="none" points="1810,0 1810,2000 " />
<polyline fill="none" vector-effect="none" points="1820,0 1820,2000 " />
<polyline fill="none" vector-effect="none" points="1830,0 1830,2000 " />
<polyline fill="none" vector-effect="none" points="1840,0 1840,2000 " />
<polyline fill="none" vector-effect="none" points="1850,0 1850,2000 " />
<polyline fill="none" vector-effect="none" points="1860,0 1860,2000 " />
<polyline fill="none" vector-effect="none" points="1870,0 1870,2000 " />
<polyline fill="none" vector-effect="none" points="1880,0 1880,2000 " />
<polyline fill="none" vector-effect="none" points="1890,0 1890,2000 " />
<polyline fill="none" vector-effect="none" points="1900,0 1900,2000 " />
<polyline fill="none" vector-effect="none" points="1910,0 1910,2000 " />
<polyline fill="none" vector-effect="none" points="1920,0 1920,2000 " />
<polyline fill="none" vector-effect="none" points="1930,0 1930,2000 " />
<polyline fill="none" vector-effect="none" points="1940,0 1940,2000 " />
<polyline fill="none" vector-effect="none" points="1950,0 1950,2000 " />
<polyline fill="none" vector-effect="none" points="1960,0 1960,2000 " />
<polyline fill="none" vector-effect="none" points="1970,0 1970,2000 " />
<polyline fill="none" vector-effect="none" points="1980,0 1980,2000 " />
<polyline fill="none" vector-effect="none" points="1990,0 1990,2000 " />
<polyline fill="none" vector-effect="none" points="0,0 2000,0 " />
<polyline fill="none" vector-effect="none" points="0,10 2000,10 " />
<polyline fill="none" vector-effect="none" points="0,20 2000,20 " />
<polyline fill="none" vector-effect="none" points="0,30 2000,30 " />
<polyline fill="none" vector-effect="none" points="0,40 2000,40 " />
<polyline fill="none" vector-effect="none" points="0,50 2000,50 " />
<polyline fill="none" vector-effect="none" points="0,60 2000,60 " />
<polyline fill="none" vector-effect="none" points="0,70 2000,70 " />
<polyline fill="none" vector-effect="none" points="0,80 2000,80 " />
<polyline fill="none" vector-effect="none" points="0,90 2000,90 " />
<polyline fill="none" vector-effect="none" points="0,100 2000,100 " />
<polyline fill="none" vector-effect="none" points="0,110 2000,110 " />
<polyline fill="none" vector-effect="none" points="0,120 2000,120 " />
<polyline fill="none" vector-effect="none" points="0,130 2000,130 " />
<polyline fill="none" vector-effect="none" points="0,140 2000,140 " />
<polyline fill="none" vector-effect="none" points="0,150 2000,150 " />
<polyline fill="none" vector-effect="none" points="0,160 2000,160 " />
<polyline fill="none" vector-effect="none" points="0,170 2000,170 " />
<polyline fill="none" vector-effect="none" points="0,180 2000,180 " />
<polyline fill="none" vector-effect="none" points="0,190 2000,190 " />
<polyline fill="none" vector-effect="none" points="0,200 2000,200 " />
<polyline fill="none" vector-effect="none" points="0,210 2000,210 " />
<polyline fill="none" vector-effect="none" points="0,220 2000,220 " />
<polyline fill="none" vector-effect="none" points="0,230 2000,230 " />
<polyline fill="none" vector-effect="none" points="0,240 2000,240 " />
<polyline fill="none" vector-effect="none" points="0,250 2000,250 " />
<polyline fill="none" vector-effect="none" points="0,260 2000,260 " />
<polyline fill="none" vector-effect="none" points="0,270 2000,270 " />
<polyline fill="none" vector-effect="none" points="0,280 2000,280 " />
<polyline fill="none" vector-effect="none" points="0,290 2000,290 " />
<polyline fill="none" vector-effect="none" points="0,300 2000,300 " />
<polyline fill="none" vector-effect="none" points="0,310 2000,310 " />
<polyline fill="none" vector-effect="none" points="0,320 2000,320 " />
<polyline fill="none" vector-effect="none" points="0,330 2000,330 " />
<polyline fill="none" vector-effect="none" points="0,340 2000,340 " />
<polyline fill="none" vector-effect="none" points="0,350 2000,350 " />
<polyline fill="none" vector-effect="none" points="0,360 2000,360 " />
<polyline fill="none" vector-effect="none" points="0,370 2000,370 " />
<polyline fill="none" vector-effect="none" points="0,380 2000,380 " />
<polyline fill="none" vector-effect="none" points="0,390 2000,390 " />
<polyline fill="none" vector-effect="none" points="0,400 2000,400 " />
<polyline fill="none" vector-effect="none" points="0,410 2000,410 " />
<polyline fill="none" vector-effect="none" points="0,420 2000,420 " />
<polyline fill="none" vector-effect="none" points="0,430 2000,430 " />
<polyline fill="none" vector-effect="none" points="0,440 2000,440 " />
<polyline fill="none" vector-effect="none" points="0,450 2000,450 " />
<polyline fill="none" vector-effect="none" points="0,460 2000,460 " />
<polyline fill="none" vector-effect="none" points="0,470 2000,470 " />
<polyline fill="none" vector-effect="none" points="0,480 2000,480 " />
<polyline fill="none" vector-effect="none" points="0,490 2000,490 " />
<polyline fill="none" vector-effect="none" points="0,500 2000,500 " />
<polyline fill="none" vector-effect="none" points="0,510 2000,510 " />
<polyline fill="none" vector-effect="none" points="0,520 2000,520 " />
<polyline fill="none" vector-effect="none" points="0,530 2000,530 " />
<polyline fill="none" vector-effect="none" points="0,540 2000,540 " />
<polyline fill="none" vector-effect="none" points="0,550 2000,550 " />
<polyline fill="none" vector-effect="none" points="0,560 2000,560 " />
<polyline fill="none" vector-effect="none" points="0,570 2000,570 " />
<polyline fill="none" vector-effect="none" points="0,580 2000,580 " />
<polyline fill="none" vector-effect="none" points="0,590 2000,590 " />
<polyline fill="none" vector-effect="none" points="0,600 2000,600 " />
<polyline fill="none" vector-effect="none" points="0,610 2000,610 " />
<polyline fill="none" vector-effect="none" points="0,620 2000,620 " />
<polyline fill="none" vector-effect="none" points="0,630 2000,630 " />
<polyline fill="none" vector-effect="none" points="0,640 2000,640 " />
<polyline fill="none" vector-effect="none" points="0,650 2000,650 " />
<polyline fill="none" vector-effect="none" points="0,660 2000,660 " />
<polyline fill="none" vector-effect="none" points="0,670 2000,670 " />
<polyline fill="none" vector-effect="none" points="0,680 2000,680 " />
<polyline fill="none" vector-effect="none" points="0,690 2000,690 " />
<polyline fill="none" vector-effect="none" points="0,700 2000,700 " />
<polyline fill="none" vector-effect="none" points="0,710 2000,710 " />
<polyline fill="none" vector-effect="none" points="0,720 2000,720 " />
<polyline fill="none" vector-effect="none" points="0,730 2000,730 " />
<polyline fill="none" vector-effect="none" points="0,740 2000,740 " />
<polyline fill="none" vector-effect="none" points="0,750 2000,750 " />
<polyline fill="none" vector-effect="none" points="0,760 2000,760 " />
<polyline fill="none" vector-effect="none" points="0,770 2000,770 " />
<polyline fill="none" vector-effect="none" points="0,780 2000,780 " />
<polyline fill="none" vector-effect="none" points="0,790 2000,790 " />
<polyline fill="none" vector-effect="none" points="0,800 2000,800 " />
<polyline fill="none" vector-effect="none" points="0,810 2000,810 " />
<polyline fill="none" vector-effect="none" points="0,820 2000,820 " />
<polyline fill="none" vector-effect="none" points="0,830 2000,830 " />
<polyline fill="none" vector-effect="none" points="0,840 2000,840 " />
<polyline fill="none" vector-effect="none" points="0,850 2000,850 " />
<polyline fill="none" vector-effect="none" points="0,860 2000,860 " />
<polyline fill="none" vector-effect="none" points="0,870 2000,870 " />
<polyline fill="none" vector-effect="none" points="0,880 2000,880 " />
<polyline fill="none" vector-effect="none" points="0,890 2000,890 " />
<polyline fill="none" vector-effect="none" points="0,900 2000,900 " />
<polyline fill="none" vector-effect="none" points="0,910 2000,910 " />
<polyline fill="none" vector-effect="none" points="0,920 2000,920 " />
<polyline fill="none" vector-effect="none" points="0,930 2000,930 " />
<polyline fill="none" vector-effect="none" points="0,940 2000,940 " />
<polyline fill="none" vector-effect="none" points="0,950 2000,950 " />
<polyline fill="none" vector-effect="none" points="0,960 2000,960 " />
<polyline fill="none" vector-effect="none" points="0,970 2000,970 " />
<polyline fill="none" vector-effect="none" points="0,980 2000,980 " />
<polyline fill="none" vector-effect="none" points="0,990 2000,990 " />
<polyline fill="none" vector-effect="none" points="0,1000 2000,1000 " />
<polyline fill="none" vector-effect="none" points="0,1010 2000,1010 " />
<polyline fill="none" vector-effect="none" points="0,1020 2000,1020 " />
<polyline fill="none" vector-effect="none" points="0,1030 2000,1030 " />
<polyline fill="none" vector-effect="none" points="0,1040 2000,1040 " />
<polyline fill="none" vector-effect="none" points="0,1050 2000,1050 " />
<polyline fill="none" vector-effect="none" points="0,1060 2000,1060 " />
<polyline fill="none" vector-effect="none" points="0,1070 2000,1070 " />
<polyline fill="none" vector-effect="none" points="0,1080 2000,1080 " />
<polyline fill="none" vector-effect="none" points="0,1090 2000,1090 " />
<polyline fill="none" vector-effect="none" points="0,1100 2000,1100 " />
<polyline fill="none" vector-effect="none" points="0,1110 2000,1110 " />
<polyline fill="none" vector-effect="none" points="0,1120 2000,1120 " />
<polyline fill="none" vector-effect="none" points="0,1130 2000,1130 " />
<polyline fill="none" vector-effect="none" points="0,1140 2000,1140 " />
<polyline fill="none" vector-effect="none" points="0,1150 2000,1150 " />
<polyline fill="none" vector-effect="none" points="0,1160 2000,1160 " />
<polyline fill="none" vector-effect="none" points="0,1170 2000,1170 " />
<polyline fill="none" vector-effect="none" points="0,1180 2000,1180 " />
<polyline fill="none" vector-effect="none" points="0,1190 2000,1190 " />
<polyline fill="none" vector-effect="none" points="0,1200 2000,1200 " />
<polyline fill="none" vector-effect="none" points="0,1210 2000,1210 " />
<polyline fill="none" vector-effect="none" points="0,1220 2000,1220 " />
<polyline fill="none" vector-effect="none" points="0,1230 2000,1230 " />
<polyline fill="none" vector-effect="none" points="0,1240 2000,1240 " />
<polyline fill="none" vector-effect="none" points="0,1250 2000,1250 " />
<polyline fill="none" vector-effect="none" points="0,1260 2000,1260 " />
<polyline fill="none" vector-effect="none" points="0,1270 2000,1270 " />
<polyline fill="none" vector-effect="none" points="0,1280 2000,1280 " />
<polyline fill="none" vector-effect="none" points="0,1290 2000,1290 " />
<polyline fill="none" vector-effect="none" points="0,1300 2000,1300 " />
<polyline fill="none" vector-effect="none" points="0,1310 2000,1310 " />
<polyline fill="none" vector-effect="none" points="0,1320 2000,1320 " />
<polyline fill="none" vector-effect="none" points="0,1330 2000,1330 " />
<polyline fill="none" vector-effect="none" points="0,1340 2000,1340 " />
<polyline fill="none" vector-effect="none" points="0,1350 2000,1350 " />
<polyline fill="none" vector-effect="none" points="0,1360 2000,1360 " />
<polyline fill="none" vector-effect="none" points="0,1370 2000,1370 " />
<polyline fill="none" vector-effect="none" points="0,1380 2000,1380 " />
<polyline fill="none" vector-effect="none" points="0,1390 2000,1390 " />
<polyline fill="none" vector-effect="none" points="0,1400 2000,1400 " />
<polyline fill="none" vector-effect="none" points="0,1410 2000,1410 " />
<polyline fill="none" vector-effect="none" points="0,1420 2000,1420 " />
<polyline fill="none" vector-effect="none" points="0,1430 2000,1430 " />
<polyline fill="none" vector-effect="none" points="0,1440 2000,1440 " />
<polyline fill="none" vector-effect="none" points="0,1450 2000,1450 " />
<polyline fill="none" vector-effect="none" points="0,1460 2000,1460 " />
<polyline fill="none" vector-effect="none" points="0,1470 2000,1470 " />
<polyline fill="none" vector-effect="none" points="0,1480 2000,1480 " />
<polyline fill="none" vector-effect="none" points="0,1490 2000,1490 " />
<polyline fill="none" vector-effect="none" points="0,1500 2000,1500 " />
<polyline fill="none" vector-effect="none" points="0,1510 2000,1510 " />
<polyline fill="none" vector-effect="none" points="0,1520 2000,1520 " />
<polyline fill="none" vector-effect="none" points="0,1530 2000,1530 " />
<polyline fill="none" vector-effect="none" points="0,1540 2000,1540 " />
<polyline fill="none" vector-effect="none" points="0,1550 2000,1550 " />
<polyline fill="none" vector-effect="none" points="0,1560 2000,1560 " />
<polyline fill="none" vector-effect="none" points="0,1570 2000,1570 " />
<polyline fill="none" vector-effect="none" points="0,1580 2000,1580 " />
<polyline fill="none" vector-effect="none" points="0,1590 2000,1590 " />
<polyline fill="none" vector-effect="none" points="0,1600 2000,1600 " />
<polyline fill="none" vector-effect="none" points="0,1610 2000,1610 " />
<polyline fill="none" vector-effect="none" points="0,1620 2000,1620 " />
<polyline fill="none" vector-effect="none" points="0,1630 2000,1630 " />
<polyline fill="none" vector-effect="none" points="0,1640 2000,1640 " />
<polyline fill="none" vector-effect="none" points="0,1650 2000,1650 " />
<polyline fill="none" vector-effect="none" points="0,1660 2000,1660 " />
<polyline fill="none" vector-effect="none" points="0,1670 2000,1670 " />
<polyline fill="none" vector-effect="none" points="0,1680 2000,1680 " />
<polyline fill="none" vector-effect="none" points="0,1690 2000,1690 " />
<polyline fill="none" vector-effect="none" points="0,1700 2000,1700 " />
<polyline fill="none" vector-effect="none" points="0,1710 2000,1710 " />
<polyline fill="none" vector-effect="none" points="0,1720 2000,1720 " />
<polyline fill="none" vector-effect="none" points="0,1730 2000,1730 " />
<polyline fill="none" vector-effect="none" points="0,1740 2000,1740 " />
<polyline fill="none" vector-effect="none" points="0,1750 2000,1750 " />
<polyline fill="none" vector-effect="none" points="0,1760 2000,1760 " />
<polyline fill="none" vector-effect="none" points="0,1770 2000,1770 " />
<polyline fill="none" vector-effect="none" points="0,1780 2000,1780 " />
<polyline fill="none" vector-effect="none" points="0,1790 2000,1790 " />
<polyline fill="none" vector-effect="none" points="0,1800 2000,1800 " />
<polyline fill="none" vector-effect="none" points="0,1810 2000,1810 " />
<polyline fill="none" vector-effect="none" points="0,1820 2000,1820 " />
<polyline fill="none" vector-effect="none" points="0,1830 2000,1830 " />
<polyline fill="none" vector-effect="none" points="0,1840 2000,1840 " />
<polyline fill="none" vector-effect="none" points="0,1850 2000,1850 " />
<polyline fill="none" vector-effect="none" points="0,1860 2000,1860 " />
<polyline fill="none" vector-effect="none" points="0,1870 2000,1870 " />
<polyline fill="none" vector-effect="none" points="0,1880 2000,1880 " />
<polyline fill="none" vector-effect="none" points="0,1890 2000,1890 " />
<polyline fill="none" vector-effect="none" points="0,1900 2000,1900 " />
<polyline fill="none" vector-effect="none" points="0,1910 2000,1910 " />
<polyline fill="none" vector-effect="none" points="0,1920 2000,1920 " />
<polyline fill="none" vector-effect="none" points="0,1930 2000,1930 " />
<polyline fill="none" vector-effect="none" points="0,1940 2000,1940 " />
<polyline fill="none" vector-effect="none" points="0,1950 2000,1950 " />
<polyline fill="none" vector-effect="none" points="0,1960 2000,1960 " />
<polyline fill="none" vector-effect="none" points="0,1970 2000,1970 " />
<polyline fill="none" vector-effect="none" points="0,1980 2000,1980 " />
<polyline fill="none" vector-effect="none" points="0,1990 2000,1990 " />
</g>

<g fill="none" stroke="#000000" stroke-opacity="1" stroke-width="1" stroke-linecap="square" stroke-linejoin="bevel" transform="matrix(1,0,0,1,0,0)"
font-family="MS Shell Dlg 2" font-size="8.25" font-weight="400" font-style="normal" 
>
</g>

<g fill="none" stroke="#000000" stroke-opacity="1" stroke-width="1" stroke-linecap="square" stroke-linejoin="bevel" transform="matrix(1,0,0,1,230,180)"
font-family="MS Shell Dlg 2" font-size="8.25" font-weight="400" font-style="normal" 
>
</g>

<g fill="#aaffff" fill-opacity="1" stroke="#0055ff" stroke-opacity="1" stroke-width="2" stroke-linecap="square" stroke-linejoin="bevel" transform="matrix(1,0,0,1,230,180)"
font-family="MS Shell Dlg 2" font-size="8.25" font-weight="400" font-style="normal" 
>
<rect x="0" y="0" width="125" height="200"/>
</g>

<g fill="none" stroke="#000000" stroke-opacity="1" stroke-width="1" stroke-linecap="square" stroke-linejoin="bevel" transform="matrix(1,0,0,1,230,180)"
font-family="MS Shell Dlg 2" font-size="8.25" font-weight="400" font-style="normal" 
>
</g>

<g fill="none" stroke="#000000" stroke-opacity="1" stroke-width="1" stroke-linecap="square" stroke-linejoin="bevel" transform="matrix(1,0,0,1,500,180)"
font-family="MS Shell Dlg 2" font-size="8.25" font-weight="400" font-style="normal" 
>
</g>

<g fill="#aaffff" fill-opacity="1" stroke="#0055ff" stroke-opacity="1" stroke-width="2" stroke-linecap="square" stroke-linejoin="bevel" transform="matrix(1,0,0,1,500,180)"
font-family="MS Shell Dlg 2" font-size="8.25" font-weight="400" font-style="normal" 
>
<rect x="0" y="0" width="125" height="200"/>
</g>

<g fill="none" stroke="#000000" stroke-opacity="1" stroke-width="1" stroke-linecap="square" stroke-linejoin="bevel" transform="matrix(1,0,0,1,500,180)"
font-family="MS Shell Dlg 2" font-size="8.25" font-weight="400" font-style="normal" 
>
</g>

<g fill="none" stroke="#000000" stroke-opacity="1" stroke-width="1" stroke-linecap="square" stroke-linejoin="bevel" transform="matrix(1,0,0,1,500,180)"
font-family="MS Shell Dlg 2" font-size="8.25" font-weight="400" font-style="normal" 
>
</g>

<g fill="#000000" fill-opacity="0" stroke="#ffffff" stroke-opacity="1" stroke-width="1" stroke-linecap="square" stroke-linejoin="bevel" transform="matrix(1,0,0,1,500,180)"
font-family="MS Shell Dlg 2" font-size="8.25" font-weight="400" font-style="normal" 
>
<rect x="0" y="0" width="125" height="200"/>
</g>

<g fill="none" stroke="#000000" stroke-opacity="1" stroke-width="1" stroke-linecap="square" stroke-linejoin="bevel" transform="matrix(1,0,0,1,500,180)"
font-family="MS Shell Dlg 2" font-size="8.25" font-weight="400" font-style="normal" 
>
</g>

<g fill="none" stroke="#000000" stroke-opacity="1" stroke-width="1" stroke-linecap="square" stroke-linejoin="bevel" transform="matrix(1,0,0,1,500,180)"
font-family="MS Shell Dlg 2" font-size="8.25" font-weight="400" font-style="normal" 
>
</g>

<g fill="#000000" fill-opacity="0" stroke="#000000" stroke-opacity="1" stroke-width="1" stroke-linecap="square" stroke-linejoin="bevel" transform="matrix(1,0,0,1,500,180)"
font-family="MS Shell Dlg 2" font-size="8.25" font-weight="400" font-style="normal" 
>
<rect x="0" y="0" width="125" height="200"/>
</g>

<g fill="none" stroke="#000000" stroke-opacity="1" stroke-width="1" stroke-linecap="square" stroke-linejoin="bevel" transform="matrix(1,0,0,1,500,180)"
font-family="MS Shell Dlg 2" font-size="8.25" font-weight="400" font-style="normal" 
>
</g>

<g fill="none" stroke="#000000" stroke-opacity="1" stroke-width="1" stroke-linecap="square" stroke-linejoin="bevel" transform="matrix(1,0,0,1,0,0)"
font-family="MS Shell Dlg 2" font-size="8.25" font-weight="400" font-style="normal" 
>
</g>

<g fill="#000000" fill-opacity="0" stroke="#0055ff" stroke-opacity="1" stroke-width="2" stroke-linecap="square" stroke-linejoin="bevel" transform="matrix(1,0,0,1,0,0)"
font-family="MS Shell Dlg 2" font-size="8.25" font-weight="400" font-style="normal" 
>
<path vector-effect="none" fill-rule="evenodd" d="M354,180 L354,182"/>
</g>

<g fill="none" stroke="#000000" stroke-opacity="1" stroke-width="1" stroke-linecap="square" stroke-linejoin="bevel" transform="matrix(1,0,0,1,0,0)"
font-family="MS Shell Dlg 2" font-size="8.25" font-weight="400" font-style="normal" 
>
</g>

<g fill="none" stroke="#000000" stroke-opacity="1" stroke-width="1" stroke-linecap="square" stroke-linejoin="bevel" transform="matrix(1,0,0,1,0,0)"
font-family="MS Shell Dlg 2" font-size="8.25" font-weight="400" font-style="normal" 
>
</g>

<g fill="#000000" fill-opacity="0" stroke="#0055ff" stroke-opacity="1" stroke-width="2" stroke-linecap="square" stroke-linejoin="bevel" transform="matrix(1,0,0,1,0,0)"
font-family="MS Shell Dlg 2" font-size="8.25" font-weight="400" font-style="normal" 
>
<path vector-effect="none" fill-rule="evenodd" d="M350,180 L500,180"/>
</g>

<g fill="none" stroke="#000000" stroke-opacity="1" stroke-width="1" stroke-linecap="square" stroke-linejoin="bevel" transform="matrix(1,0,0,1,0,0)"
font-family="MS Shell Dlg 2" font-size="8.25" font-weight="400" font-style="normal" 
>
</g>

<g fill="none" stroke="#000000" stroke-opacity="1" stroke-width="1" stroke-linecap="square" stroke-linejoin="bevel" transform="matrix(1,0,0,1,0,0)"
font-family="MS Shell Dlg 2" font-size="8.25" font-weight="400" font-style="normal" 
>
</g>

<g fill="#000000" fill-opacity="0" stroke="#0055ff" stroke-opacity="1" stroke-width="2" stroke-linecap="square" stroke-linejoin="bevel" transform="matrix(1,0,0,1,0,0)"
font-family="MS Shell Dlg 2" font-size="8.25" font-weight="400" font-style="normal" 
>
<path vector-effect="none" fill-rule="evenodd" d="M350,380 L500,380"/>
</g>

<g fill="none" stroke="#000000" stroke-opacity="1" stroke-width="1" stroke-linecap="square" stroke-linejoin="bevel" transform="matrix(1,0,0,1,0,0)"
font-family="MS Shell Dlg 2" font-size="8.25" font-weight="400" font-style="normal" 
>
</g>

<g fill="none" stroke="#000000" stroke-opacity="1" stroke-width="1" stroke-linecap="square" stroke-linejoin="bevel" transform="matrix(1,0,0,1,245,235)"
font-family="MS Shell Dlg 2" font-size="8.25" font-weight="400" font-style="normal" 
>
</g>

<g fill="#ff0000" fill-opacity="1" stroke="#ff0000" stroke-opacity="1" stroke-width="2" stroke-linecap="square" stroke-linejoin="bevel" transform="matrix(1,0,0,1,245,235)"
font-family="MS Shell Dlg 2" font-size="8.25" font-weight="400" font-style="normal" 
>
<circle cx="50" cy="50" r="25"/>
</g>

<g fill="none" stroke="#000000" stroke-opacity="1" stroke-width="1" stroke-linecap="square" stroke-linejoin="bevel" transform="matrix(1,0,0,1,245,235)"
font-family="MS Shell Dlg 2" font-size="8.25" font-weight="400" font-style="normal" 
>
</g>

<g fill="none" stroke="#000000" stroke-opacity="1" stroke-width="1" stroke-linecap="square" stroke-linejoin="bevel" transform="matrix(1,0,0,1,515,235)"
font-family="MS Shell Dlg 2" font-size="8.25" font-weight="400" font-style="normal" 
>
</g>

<g fill="#ff0000" fill-opacity="1" stroke="#ff0000" stroke-opacity="1" stroke-width="2" stroke-linecap="square" stroke-linejoin="bevel" transform="matrix(1,0,0,1,515,235)"
font-family="MS Shell Dlg 2" font-size="8.25" font-weight="400" font-style="normal" 
>
<circle cx="50" cy="50" r="25"/>
</g>

<g fill="none" stroke="#000000" stroke-opacity="1" stroke-width="1" stroke-linecap="square" stroke-linejoin="bevel" transform="matrix(1,0,0,1,515,235)"
font-family="MS Shell Dlg 2" font-size="8.25" font-weight="400" font-style="normal" 
>
</g>

<g fill="none" stroke="#000000" stroke-opacity="1" stroke-width="1" stroke-linecap="square" stroke-linejoin="bevel" transform="matrix(1,0,0,1,635,305)"
font-family="MS Shell Dlg 2" font-size="8.25" font-weight="400" font-style="normal" 
>
</g>

<g fill="#000000" fill-opacity="0" stroke="#ffffff" stroke-opacity="1" stroke-width="1" stroke-linecap="square" stroke-linejoin="bevel" transform="matrix(1,0,0,1,635,305)"
font-family="MS Shell Dlg 2" font-size="8.25" font-weight="400" font-style="normal" 
>
<rect x="25" y="25" width="50" height="50"/>
</g>

<g fill="none" stroke="#000000" stroke-opacity="1" stroke-width="1" stroke-linecap="square" stroke-linejoin="bevel" transform="matrix(1,0,0,1,635,305)"
font-family="MS Shell Dlg 2" font-size="8.25" font-weight="400" font-style="normal" 
>
</g>

<g fill="none" stroke="#000000" stroke-opacity="1" stroke-width="1" stroke-linecap="square" stroke-linejoin="bevel" transform="matrix(1,0,0,1,645,85)"
font-family="MS Shell Dlg 2" font-size="8.25" font-weight="400" font-style="normal" 
>
</g>

<g fill="#000000" fill-opacity="0" stroke="#000000" stroke-opacity="1" stroke-width="1" stroke-linecap="square" stroke-linejoin="bevel" transform="matrix(1,0,0,1,645,85)"
font-family="MS Shell Dlg 2" font-size="8.25" font-weight="400" font-style="normal" 
>
<rect x="25" y="25" width="50" height="50"/>
</g>

<g fill="none" stroke="#000000" stroke-opacity="1" stroke-width="1" stroke-linecap="square" stroke-linejoin="bevel" transform="matrix(1,0,0,1,645,85)"
font-family="MS Shell Dlg 2" font-size="8.25" font-weight="400" font-style="normal" 
>
</g>

<g fill="none" stroke="#000000" stroke-opacity="1" stroke-width="1" stroke-linecap="square" stroke-linejoin="bevel" transform="matrix(1,0,0,1,380,240)"
font-family="MS Shell Dlg 2" font-size="8.25" font-weight="400" font-style="normal" 
>
</g>

<g fill="#00aa00" fill-opacity="1" stroke="#00aa00" stroke-opacity="1" stroke-width="1" stroke-linecap="square" stroke-linejoin="bevel" transform="matrix(1,0,0,1,380,240)"
font-family="MS Shell Dlg 2" font-size="8.25" font-weight="400" font-style="normal" 
>
<circle cx="50" cy="50" r="26.4998"/>
</g>

<g fill="none" stroke="#ffffff" stroke-opacity="1" stroke-width="1" stroke-linecap="square" stroke-linejoin="bevel" transform="matrix(1,0,0,1,380,240)"
font-family="MS Shell Dlg 2" font-size="8.25" font-weight="400" font-style="normal" 
>
<rect vector-effect="non-scaling-stroke" x="23.5002" y="23.5002" width="52.9995" height="52.9995"/>
</g>

<g fill="none" stroke="#000000" stroke-opacity="1" stroke-dasharray="4,2" stroke-dashoffset="0" stroke-width="1" stroke-linecap="square" stroke-linejoin="bevel" transform="matrix(1,0,0,1,380,240)"
font-family="MS Shell Dlg 2" font-size="8.25" font-weight="400" font-style="normal" 
>
<rect vector-effect="non-scaling-stroke" x="23.5002" y="23.5002" width="52.9995" height="52.9995"/>
</g>

<g fill="none" stroke="#000000" stroke-opacity="1" stroke-width="1" stroke-linecap="square" stroke-linejoin="bevel" transform="matrix(1,0,0,1,380,240)"
font-family="MS Shell Dlg 2" font-size="8.25" font-weight="400" font-style="normal" 
>
</g>

<g fill="none" stroke="#000000" stroke-opacity="1" stroke-width="1" stroke-linecap="square" stroke-linejoin="bevel" transform="matrix(1,0,0,1,0,0)"
font-family="MS Shell Dlg 2" font-size="8.25" font-weight="400" font-style="normal" 
>
</g>
</g>
</svg>
