M48
;FILE_FORMAT=4:2
METRIC,0000.00
;TYPE=PLATED
T01C0.30
T02C0.79
T04C0.80
T05C1.00
T06C1.20
T07C3.50
;TYPE=NON_PLATED
T03C0.80
%
T01
X+038025Y+039575
Y+039375
X+038050Y+040125
Y+039925
X+038550Y+037775
X+038150Y+037375
X+038550
X+038250Y+038725
X+038450Y+038575
X+038550Y+038350
X+038275Y+039000
X+038250Y+039550
Y+039375
X+038725Y+039400
X+038400
X+038725Y+039525
X+038400
X+038575
Y+039400
X+038825Y+039550
Y+039375
X+038150Y+040350
X+038400Y+040325
X+038625Y+040650
X+038175Y+041775
X+038550
X+038625Y+041600
X+038450
X+038250
Y+041375
X+038625
X+038450
Y+042600
X+038250
X+038650
Y+042400
X+038450
X+038250
X+038450Y+042825
X+038250
X+038650
X+039400Y+039000
X+039500Y+039150
X+039150Y+039025
Y+039500
X+039575Y+039000
X+039250Y+039500
X+039000Y+039575
Y+039375
X+038925Y+039475
X+039425Y+040650
X+039350Y+041775
X+039050Y+041350
X+039250
X+039425
Y+041575
X+039250
X+039050
Y+042400
Y+042600
X+039450Y+042400
X+039250
X+039450Y+042600
X+039250
X+039050Y+042825
X+039250
X+039450
X+039875Y+038525
X+039750Y+038400
X+039900Y+039125
X+040050Y+039300
X+039950
X+039750Y+039400
X+040275Y+039275
X+040350Y+039225
X+040050Y+039150
X+039975Y+040275
X+040250Y+040650
X+039825Y+041800
X+040175Y+041775
X+040225Y+041600
X+040050
X+039850
Y+041375
X+040050
X+040225
X+040250Y+042600
Y+042400
X+040075
Y+042600
X+039875
Y+042400
Y+042825
X+040075
X+040250
X+041025Y+037825
X+040800Y+038775
X+041075Y+038450
X+040750Y+038375
X+040650
X+041025Y+038175
X+040500Y+038400
Y+038775
X+040700Y+039300
X+040600
X+040800Y+039100
Y+039000
X+041075Y+040650
X+041000Y+041775
X+041100Y+041600
X+040925
X+040725
Y+041375
X+040925
X+041100
X+040875Y+042375
Y+042575
X+040675Y+042375
X+041050
Y+042575
X+040675
X+040875Y+042800
X+041050
X+040675
X+041850Y+037675
X+041475Y+037750
X+041400Y+038475
X+041750Y+038250
X+041250Y+039525
X+041450Y+039350
X+041350Y+040250
X+041625Y+040150
X+041500Y+040625
X+041450Y+041475
X+041250Y+042575
X+041225Y+043250
X+041325Y+043525
X+042525Y+038050
X+042100Y+038825
X+041975Y+039375
X+042000Y+039125
X+042225Y+040250
X+042375Y+041625
Y+042525
X+042050Y+043275
X+042450Y+042950
X+042050Y+043525
X+042925Y+040225
X+042850Y+041625
X+042825Y+042525
Y+042950
X+038325Y+038875
X+038550Y+041900
X+038250Y+041175
X+038450
X+038625
X+039350Y+041900
X+039425Y+041150
X+039250
X+039050
X+039325Y+040375
X+040225Y+039600
X+040000Y+038850
X+040175Y+041900
X+040225Y+041175
X+040050
X+039850
X+041000Y+041900
X+040725Y+041175
X+040925
X+041100
X+042600Y+039650
X+041950Y+041175
X+038125Y+037775
Y+038350
X+039650Y+040325
X+040400Y+039000
X+041125Y+038125
T02
X+040075Y+037600
Y+037800
X+039875Y+037600
Y+037800
X+039675Y+037600
Y+037800
X+040475Y+037600
Y+037800
X+040275Y+037600
Y+037800
T03
X+039750Y+043450
X+039496
X+038988
X+039242
T04
X+038925Y+038100
X+039325
X+039525Y+038130
X+039125
X+041400Y+038775
X+041146
X+040075Y+039925
X+040475
X+040275Y+039955
T05
X+041875Y+042250
X+042383
T06
X+040975Y+043450
X+040721
X+042700Y+039325
Y+038817
Y+039071
Y+038050
Y+037542
Y+037796
X+039375Y+036875
X+038867
X+039121
X+040700
X+040192
X+040446
X+041875
X+041367
X+041621
T07
X+038350Y+036925
Y+043350
X+042575Y+036925
Y+043350
T00
M30
